<svg xmlns="http://www.w3.org/2000/svg" viewBox="0 0 800 420" width="800" height="420">
  <defs>
    <linearGradient id="bg" x1="0%" y1="0%" x2="100%" y2="100%">
      <stop offset="0%" style="stop-color:#f0f4f8"/>
      <stop offset="100%" style="stop-color:#e8eef4"/>
    </linearGradient>
    <filter id="shadow"><feDropShadow dx="0" dy="2" stdDeviation="4" flood-opacity="0.08"/></filter>
  </defs>
  <rect width="800" height="420" fill="url(#bg)"/>
  <rect x="24" y="24" width="180" height="360" rx="12" fill="rgba(255,255,255,0.85)" filter="url(#shadow)"/>
  <text x="40" y="56" font-family="system-ui,-apple-system,sans-serif" font-size="14" font-weight="700" fill="#2563eb">1NF0TECH í\</text>
  <rect x="40" y="72" width="148" height="36" rx="8" fill="rgba(37,99,235,0.1)"/>
  <text x="52" y="94" font-family="system-ui" font-size="12" fill="#2563eb">ęhŘ</text>
  <text x="52" y="130" font-family="system-ui" font-size="12" fill="#6b7280">Ýh</text>
  <text x="52" y="158" font-family="system-ui" font-size="12" fill="#6b7280">
 </text>
  <text x="52" y="186" font-family="system-ui" font-size="12" fill="#6b7280">žöŃ,</text>
  <rect x="220" y="24" width="556" height="48" rx="12" fill="rgba(255,255,255,0.85)" filter="url(#shadow)"/>
  <text x="240" y="56" font-family="system-ui" font-size="18" font-weight="600" fill="#1a1a1a">ęhŘ</text>
  <g transform="translate(220,88)">
    <rect x="0" y="0" width="130" height="88" rx="12" fill="rgba(255,255,255,0.9)" filter="url(#shadow)"/>
    <text x="16" y="42" font-family="system-ui" font-size="28" font-weight="700" fill="#1a1a1a">0</text>
    <text x="16" y="68" font-family="system-ui" font-size="11" fill="#6b7280">Ý;p</text>
    <rect x="146" y="0" width="130" height="88" rx="12" fill="rgba(255,255,255,0.9)" filter="url(#shadow)"/>
    <text x="162" y="42" font-family="system-ui" font-size="28" font-weight="700" fill="#1a1a1a">0</text>
    <text x="162" y="68" font-family="system-ui" font-size="11" fill="#6b7280">+ÎiÝ</text>
    <rect x="292" y="0" width="130" height="88" rx="12" fill="rgba(255,255,255,0.9)" filter="url(#shadow)"/>
    <text x="308" y="42" font-family="system-ui" font-size="28" font-weight="700" fill="#dc2626">0</text>
    <text x="308" y="68" font-family="system-ui" font-size="11" fill="#6b7280">ÎiGµ</text>
    <rect x="438" y="0" width="130" height="88" rx="12" fill="rgba(255,255,255,0.9)" filter="url(#shadow)"/>
    <text x="454" y="42" font-family="system-ui" font-size="28" font-weight="700" fill="#1a1a1a">0</text>
    <text x="454" y="68" font-family="system-ui" font-size="11" fill="#6b7280">ňŃšľ</text>
  </g>
  <text x="240" y="210" font-family="system-ui" font-size="12" fill="#6b7280">í\ · ¶­Ĺę¤’űß  žö	łíŔKź9Ű</text>
</svg>
